REM MD5 06a65a3bb10be4715b77f58be5652c89
FILE "Euro Demo 20 (France).bin" BINARY
  TRACK 01 MODE2/2352
    INDEX 01 00:00:00
  TRACK 02 AUDIO
    INDEX 00 17:54:24
    INDEX 01 17:56:24
  TRACK 03 AUDIO
    INDEX 00 20:55:74
    INDEX 01 20:57:74
  TRACK 04 AUDIO
    INDEX 00 24:32:03
    INDEX 01 24:34:03
REM LEADOUT 27:35:34
